<svg width="14" height="10" viewBox="0 0 14 10" fill="none" xmlns="http://www.w3.org/2000/svg">
<path d="M5.44863 9.27956C5.31737 9.27983 5.18734 9.25417 5.06602 9.20406C4.94469 9.15395 4.83446 9.08038 4.74163 8.98756L0.499634 4.74456C0.404061 4.65238 0.327803 4.54209 0.275309 4.42013C0.222816 4.29816 0.195138 4.16696 0.193892 4.03418C0.192645 3.9014 0.217854 3.76971 0.268048 3.64678C0.318242 3.52385 0.392416 3.41214 0.486241 3.31819C0.580067 3.22423 0.691664 3.1499 0.814524 3.09953C0.937383 3.04916 1.06904 3.02377 1.20182 3.02482C1.3346 3.02588 1.46584 3.05337 1.58788 3.1057C1.70992 3.15802 1.82032 3.23412 1.91263 3.32956L5.44763 6.86456L11.8126 0.501562C12.0001 0.313921 12.2545 0.208453 12.5198 0.208359C12.7851 0.208265 13.0395 0.313553 13.2271 0.501061C13.4148 0.68857 13.5202 0.942938 13.5203 1.20821C13.5204 1.47348 13.4151 1.72792 13.2276 1.91556L6.15563 8.98756C6.06281 9.08038 5.95258 9.15395 5.83125 9.20406C5.70993 9.25417 5.5799 9.27983 5.44863 9.27956Z" fill="#2FAB73"/>
</svg>
